static_grf.mot
version=1
nRows=12
nColumns 19
inDegrees=yes
endheader
time	1_ground_force_vx	1_ground_force_vy	1_ground_force_vz	1_ground_force_px	1_ground_force_py	1_ground_force_pz	1_ground_torque_x	1_ground_torque_y	1_ground_torque_z	2_ground_force_vx	2_ground_force_vy	2_ground_force_vz	2_ground_force_px	2_ground_force_py	2_ground_force_pz	2_ground_torque_x	2_ground_torque_y	2_ground_torque_z
            1.501500	            3.385036	          247.598437	          -20.637216	           -0.272692	            0.006174	           -0.395520	            0.016712	            1.222367	           -0.101884	           -5.221698	          229.170259	           22.829192	           -0.232776	            0.005649	           -0.699182	            0.029617	           -1.299837	           -0.129485
            1.502000	            3.568815	          247.237352	          -20.501649	           -0.272640	            0.006174	           -0.395621	            0.017794	            1.232746	           -0.102223	           -5.315960	          229.353255	           23.064529	           -0.233105	            0.005648	           -0.699370	            0.029808	           -1.286065	           -0.129331
            1.502500	            3.523802	          247.055701	          -20.181317	           -0.273211	            0.006174	           -0.395591	            0.017746	            1.244217	           -0.101637	           -5.173519	          228.802146	           22.827858	           -0.232664	            0.005649	           -0.699125	            0.030968	           -1.369571	           -0.136644
            1.503000	            3.431415	          247.777729	          -20.407277	           -0.272667	            0.006173	           -0.395455	            0.016626	            1.200554	           -0.098879	           -5.220266	          228.801140	           23.062518	           -0.233007	            0.005649	           -0.699537	            0.030243	           -1.325538	           -0.133611
            1.503500	            3.432083	          247.235949	          -20.180317	           -0.272704	            0.006175	           -0.395878	            0.015802	            1.138302	           -0.092912	           -5.318659	          230.090183	           22.973301	           -0.232932	            0.005650	           -0.699717	            0.030329	           -1.312053	           -0.131002
            1.504000	            3.385931	          247.056264	          -20.318544	           -0.273014	            0.006177	           -0.396228	            0.016708	            1.219074	           -0.100260	           -5.408954	          229.168410	           23.157768	           -0.233015	            0.005647	           -0.699095	            0.030651	           -1.298645	           -0.131230
            1.504500	            3.476967	          246.877196	          -20.594680	           -0.273088	            0.006175	           -0.395843	            0.017509	            1.243187	           -0.103708	           -5.176075	          229.537903	           23.065127	           -0.233186	            0.005648	           -0.699318	            0.029036	           -1.287614	           -0.129386
            1.505000	            3.522969	          248.498809	          -20.404413	           -0.272604	            0.006172	           -0.395195	            0.017433	            1.229640	           -0.100967	           -5.223007	          229.538403	           22.877434	           -0.233329	            0.005646	           -0.699066	            0.030703	           -1.349335	           -0.134484
            1.505500	            3.430798	          247.418377	          -20.683959	           -0.273079	            0.006176	           -0.396006	            0.017461	            1.259232	           -0.105271	           -5.174266	          228.986957	           22.640802	           -0.233404	            0.005645	           -0.698903	            0.031288	           -1.384662	           -0.136907
            1.506000	            3.706539	          247.417251	          -20.409506	           -0.272595	            0.006176	           -0.396032	            0.018297	            1.221330	           -0.100748	           -5.269192	          229.354093	           22.876797	           -0.233022	            0.005648	           -0.699289	            0.029854	           -1.299449	           -0.129613
            1.506500	            3.569106	          248.137894	          -20.314361	           -0.272512	            0.006174	           -0.395611	            0.017322	            1.204281	           -0.098591	           -4.940599	          229.171274	           22.829072	           -0.233156	            0.005647	           -0.699019	            0.029614	           -1.373670	           -0.136839
            1.507000	            3.385231	          247.778310	          -20.544731	           -0.272670	            0.006175	           -0.395782	            0.016531	            1.209947	           -0.100324	           -5.221677	          229.170091	           22.876120	           -0.232934	            0.005648	           -0.699099	            0.029904	           -1.312427	           -0.131009
